{
  "accessors": [
    {
      "bufferView": 2,
      "componentType": 5126,
      "count": 6098,
      "max": [0.028498223051428795, 0.034810621291399, 0.14343006908893585],
      "min": [-0.02912096120417118, -0.025730011984705925, -0.1442224085330963],
      "type": "VEC3"
    },
    {
      "bufferView": 2,
      "byteOffset": 73176,
      "componentType": 5126,
      "count": 6098,
      "max": [1.0, 1.0, 1.0],
      "min": [-1.0, -1.0, -1.0],
      "type": "VEC3"
    },
    {
      "bufferView": 3,
      "componentType": 5126,
      "count": 6098,
      "max": [1.0, 1.0, 1.0, 1.0],
      "min": [-1.0, -1.0, -1.0, 1.0],
      "type": "VEC4"
    },
    {
      "bufferView": 1,
      "componentType": 5126,
      "count": 6098,
      "max": [0.8312657475471497, 0.9910503029823303],
      "min": [0.0160260871052742, 0.012279588729143143],
      "type": "VEC2"
    },
    {
      "bufferView": 1,
      "byteOffset": 48784,
      "componentType": 5126,
      "count": 6098,
      "max": [0.8312657475471497, 0.9910503029823303],
      "min": [0.0160260871052742, 0.012279588729143143],
      "type": "VEC2"
    },
    {
      "bufferView": 1,
      "byteOffset": 97568,
      "componentType": 5126,
      "count": 6098,
      "max": [0.8312657475471497, 0.9910503029823303],
      "min": [0.0160260871052742, 0.012279588729143143],
      "type": "VEC2"
    },
    {
      "bufferView": 0,
      "componentType": 5125,
      "count": 17124,
      "type": "SCALAR"
    },
    {
      "bufferView": 2,
      "byteOffset": 146352,
      "componentType": 5126,
      "count": 249,
      "max": [0.011372335255146027, 0.01137231383472681, 1.0605134963989258],
      "min": [-0.011372311972081661, -0.01137235015630722, 0.1310005486011505],
      "type": "VEC3"
    },
    {
      "bufferView": 2,
      "byteOffset": 149340,
      "componentType": 5126,
      "count": 249,
      "max": [0.9997504949569702, 0.9997504949569702, 1.0],
      "min": [-0.9997504949569702, -0.9997504949569702, -0.6788811683654785],
      "type": "VEC3"
    },
    {
      "bufferView": 1,
      "byteOffset": 146352,
      "componentType": 5126,
      "count": 249,
      "max": [1.000000238418579, 1.0],
      "min": [0.0, 0.5],
      "type": "VEC2"
    },
    {
      "bufferView": 0,
      "byteOffset": 68496,
      "componentType": 5125,
      "count": 1290,
      "type": "SCALAR"
    }
  ],
  "asset": {
    "extras": {
      "author": "Quiznos323 (https://sketchfab.com/quiznos323)",
      "license": "CC-BY-NC-SA-4.0 (http://creativecommons.org/licenses/by-nc-sa/4.0/)",
      "source": "https://sketchfab.com/3d-models/obi-wans-lightsaber-jedi-master-star-wars-d97db6d7694a4dd4819dd21cae88358b",
      "title": "Obi-Wan's Lightsaber (Jedi Master) - Star Wars"
    },
    "generator": "Sketchfab-16.12.0",
    "version": "2.0"
  },
  "bufferViews": [
    {
      "buffer": 0,
      "byteLength": 73656,
      "name": "floatBufferViews",
      "target": 34963
    },
    {
      "buffer": 0,
      "byteLength": 148344,
      "byteOffset": 73656,
      "byteStride": 8,
      "name": "floatBufferViews",
      "target": 34962
    },
    {
      "buffer": 0,
      "byteLength": 152328,
      "byteOffset": 222000,
      "byteStride": 12,
      "name": "floatBufferViews",
      "target": 34962
    },
    {
      "buffer": 0,
      "byteLength": 97568,
      "byteOffset": 374328,
      "byteStride": 16,
      "name": "floatBufferViews",
      "target": 34962
    }
  ],
  "buffers": [
    {
      "byteLength": 471896,
      "uri": "scene.bin"
    }
  ],
  "extensionsUsed": ["KHR_materials_emissive_strength", "KHR_materials_specular"],
  "images": [
    {
      "uri": "textures/ObiWansLightsaber_baseColor.png"
    },
    {
      "uri": "textures/ObiWansLightsaber_metallicRoughness.png"
    },
    {
      "uri": "textures/ObiWansLightsaber_normal.png"
    }
  ],
  "materials": [
    {
      "doubleSided": true,
      "name": "ObiWansLightsaber",
      "normalTexture": {
        "index": 2
      },
      "pbrMetallicRoughness": {
        "baseColorTexture": {
          "index": 0
        },
        "metallicRoughnessTexture": {
          "index": 1
        },
        "roughnessFactor": 0.5732463260553661
      }
    },
    {
      "doubleSided": true,
      "emissiveFactor": [0.0012141079341953431, 0.0, 0.17144110073282254],
      "extensions": {
        "KHR_materials_emissive_strength": {
          "emissiveStrength": 10.0
        },
        "KHR_materials_specular": {
          "specularColorFactor": [1.0, 1.0, 1.0],
          "specularFactor": 1.0
        }
      },
      "name": "LightsaberBlade_Blue",
      "pbrMetallicRoughness": {
        "baseColorFactor": [0.8228755431564793, 0.854521631347008, 0.9117889721365602, 1.0],
        "metallicFactor": 0.0
      }
    }
  ],
  "meshes": [
    {
      "name": "Hilt_ObiWansLightsaber_0",
      "primitives": [
        {
          "attributes": {
            "NORMAL": 1,
            "POSITION": 0,
            "TANGENT": 2,
            "TEXCOORD_0": 3,
            "TEXCOORD_1": 4,
            "TEXCOORD_2": 5
          },
          "indices": 6,
          "material": 0,
          "mode": 4
        }
      ]
    },
    {
      "name": "Blade_LightsaberBlade_Blue_0",
      "primitives": [
        {
          "attributes": {
            "NORMAL": 8,
            "POSITION": 7,
            "TEXCOORD_0": 9
          },
          "indices": 10,
          "material": 1,
          "mode": 4
        }
      ]
    }
  ],
  "nodes": [
    {
      "children": [1],
      "matrix": [
        5.551115123125783e-17, -0.5992123484611509, -0.8005901575088502, 0.0, -1.6653345369377348e-16, 0.8005901575088502, -0.5992123484611509, 0.0,
        1.0, 2.2204460492503136e-16, -1.6653345369377343e-16, 0.0, 0.0, 0.0, 0.0, 1.0
      ],
      "name": "Sketchfab_model"
    },
    {
      "children": [2],
      "matrix": [1.0, 0.0, 0.0, 0.0, 0.0, 0.0, 1.0, 0.0, 0.0, -1.0, 0.0, 0.0, 0.0, 0.0, 0.0, 1.0],
      "name": "ObiWansLightsaber.fbx"
    },
    {
      "children": [3],
      "name": "RootNode"
    },
    {
      "children": [4, 6],
      "matrix": [
        100.0, 0.0, 0.0, 0.0, -0.0, -1.629206793918314e-5, -99.99999999999868, 0.0, 0.0, 99.99999999999868, -1.629206793918314e-5, 0.0,
        -9.72805310084368e-7, 0.0, 1.5366822481155396e-5, 1.0
      ],
      "name": "Lightsaber_Obi_Wan"
    },
    {
      "children": [5],
      "matrix": [
        1.0, 0.0, 0.0, 0.0, 0.0, 1.0, -2.646977960169688e-23, 0.0, 0.0, 2.646977960169688e-23, 1.0, 0.0, 9.728053029789407e-9, 1.5366822481155396e-7,
        3.1554436208840472e-30, 1.0
      ],
      "name": "Hilt"
    },
    {
      "mesh": 0,
      "name": "Hilt_ObiWansLightsaber_0"
    },
    {
      "children": [7],
      "matrix": [
        1.0, 0.0, 0.0, 0.0, 0.0, 1.0, -2.646977960169688e-23, 0.0, 0.0, 2.646977960169688e-23, 1.0, 0.0, 9.728053029789407e-9, 1.5366822481155396e-7,
        3.1554436208840472e-30, 1.0
      ],
      "name": "Blade"
    },
    {
      "mesh": 1,
      "name": "Blade_LightsaberBlade_Blue_0"
    }
  ],
  "samplers": [
    {
      "magFilter": 9729,
      "minFilter": 9987,
      "wrapS": 10497,
      "wrapT": 10497
    }
  ],
  "scene": 0,
  "scenes": [
    {
      "name": "Sketchfab_Scene",
      "nodes": [0]
    }
  ],
  "textures": [
    {
      "sampler": 0,
      "source": 0
    },
    {
      "sampler": 0,
      "source": 1
    },
    {
      "sampler": 0,
      "source": 2
    }
  ]
}
